<svg width="307" height="301" viewBox="0 0 307 301" fill="none" xmlns="http://www.w3.org/2000/svg">
<path d="M162.155 49.6002C155.305 44.2105 148.955 49.7729 146.636 53.2279C149.669 58.0647 157.018 67.4276 162.155 66.1838C168.576 64.6291 170.717 56.3373 162.155 49.6002Z" fill="#B78E78"/>
<path d="M160.895 293.582C176.077 290.63 178.482 272.875 177.969 267.168C162.358 269.041 131.207 279.61 130.027 284.485C128.552 290.579 141.917 297.272 160.895 293.582Z" fill="#98674D"/>
<path d="M60.7218 293.855C45.0452 291.351 42.9918 276.847 42.5905 269.779C58.7364 269.083 93.3128 274.648 95.298 280.376C97.7795 287.535 83.1123 297.43 60.7218 293.855Z" fill="#98674D"/>
<path d="M150.912 263.828C176.664 275.812 266.519 196.224 257.827 159.364C251.185 131.197 191.959 85.1824 168.452 120.772C139.067 165.258 118.723 248.848 150.912 263.828Z" fill="#543A3A"/>
<path d="M16.8412 202.054C20.9393 148.178 36.0987 96.5085 47.1125 81.356C47.1125 81.356 66.3445 58.6186 93.4253 56.3176C142.687 52.1318 156.849 72.0316 156.849 72.0316C181.915 98.4151 194.232 135.492 200.693 202.054C205.764 254.308 184.725 270.67 165.263 276.365C157.593 278.609 143.885 285.406 111.429 285.406C73.8135 285.406 77.5411 282.681 55.4357 277.358C28.0674 270.769 12.7833 255.403 16.8412 202.054Z" fill="#C2947C"/>
<path d="M103.636 21.0719L106.397 21.0719L106.397 46.9027L103.636 46.9027L103.636 21.0719Z" fill="white"/>
<ellipse cx="82.0105" cy="19.3496" rx="22.5461" ry="2.58308" fill="#BCC0C1"/>
<ellipse cx="127.103" cy="19.3496" rx="22.5461" ry="2.58308" fill="#BCC0C1"/>
<ellipse cx="105.018" cy="18.9185" rx="3.22087" ry="3.01359" fill="white"/>
<path d="M106.842 78.7279C76.4871 78.3447 54.0195 75.6942 46.58 74.4169C55.8052 59.8873 68.4523 32.2651 106.842 32.2651C147.017 32.2651 160.855 59.8873 166.212 74.4169C159.07 76.0136 137.197 79.1112 106.842 78.7279Z" fill="#A79184"/>
<mask id="mask0_687_83" style="mask-type:alpha" maskUnits="userSpaceOnUse" x="46" y="32" width="121" height="47">
<path d="M106.839 78.7279C76.4843 78.3447 54.0167 75.6942 46.5772 74.4169C55.8024 59.8873 68.4495 32.2651 106.839 32.2651C147.015 32.2651 160.853 59.8873 166.209 74.4169C159.067 76.0136 137.194 79.1112 106.839 78.7279Z" fill="#8B756A"/>
</mask>
<g mask="url(#mask0_687_83)">
<path d="M132.161 74.8859C130.32 52.4992 117.744 36.8573 104.553 31.8347C109.308 30.1126 119.093 26.6685 120.198 26.6685C121.302 26.6685 167.744 56.6609 185.535 67.5672C176.793 82.0611 134.001 97.2726 132.161 74.8859Z" fill="#927C70"/>
<path d="M78.7861 77.469C80.6266 55.0823 92.7432 36.8573 105.933 31.8347C101.179 30.1126 91.3935 26.6685 90.2892 26.6685C89.1849 26.6685 51.9456 50.2032 34.1542 61.1095C42.8965 75.6035 76.9457 99.8557 78.7861 77.469Z" fill="#927C70"/>
</g>
<path d="M50.7797 72.7317C43.3594 73.4362 38.2027 81.6201 39.6783 87.3692C39.6783 94.0447 164.274 89.2551 170.219 87.3692C176.165 85.4833 170.081 74.6176 164.136 72.7317C158.19 70.8459 58.3461 72.0134 50.7797 72.7317Z" fill="#725F56"/>
<path d="M59.6472 50.2463C66.4967 44.8566 72.8468 50.419 75.1657 53.874C72.1334 58.7109 64.7843 68.0737 59.6472 66.8299C53.2257 65.2752 51.0853 56.9834 59.6472 50.2463Z" fill="#B78E78"/>
<path d="M94.5268 131.936C94.4758 133.954 93.812 135.738 92.8334 136.993C91.8552 138.247 90.6148 138.92 89.356 138.92C88.0971 138.92 86.8907 138.247 85.9759 136.993C85.0606 135.738 84.4869 133.954 84.5378 131.936C84.5888 129.917 85.2526 128.133 86.2312 126.878C87.2094 125.624 88.4498 124.951 89.7087 124.951C90.9675 124.951 92.1739 125.624 93.0887 126.878C94.004 128.133 94.5777 129.917 94.5268 131.936Z" fill="#45171A" stroke="#45171A" stroke-width="2.25627"/>
<path d="M156.969 131.566C157.011 133.583 156.43 135.367 155.509 136.621C154.589 137.874 153.379 138.548 152.119 138.548C150.859 138.548 149.62 137.874 148.647 136.621C147.674 135.367 147.017 133.583 146.975 131.566C146.933 129.549 147.514 127.766 148.435 126.512C149.355 125.259 150.565 124.585 151.825 124.585C153.085 124.585 154.324 125.259 155.297 126.512C156.27 127.766 156.927 129.549 156.969 131.566Z" fill="#45171A" stroke="#45171A" stroke-width="2.25627"/>
<path d="M120.585 143.029C116.565 143.045 113.129 140.545 115.119 138.291C116.038 137.633 119.601 137.109 120.89 137.032C122.115 136.96 124.495 137.173 125.649 137.993C129.081 140.433 124.606 143.014 120.585 143.029Z" fill="#45171A" stroke="#45171A" stroke-width="2.65614" stroke-linecap="round"/>
<path d="M114.642 152.498L114.598 149.044L121.787 146.925L127.481 148.902L127.524 152.355C127.54 153.601 126.543 154.622 125.297 154.636L116.927 154.729C115.68 154.743 114.658 153.744 114.642 152.498Z" fill="white"/>
<path d="M120.96 142.699L121.031 146.573M121.031 146.573C122.738 147.694 126.979 149.75 130.279 149.009C133.579 148.268 134.996 146.925 135.292 146.346M121.031 146.573C119.973 147.451 117.213 149.217 112.797 149.287C108.38 149.358 106.785 147.661 106.309 146.807" stroke="#45171A" stroke-width="2.25627" stroke-linecap="round"/>
<path d="M166.779 220.981C180.94 214.558 193.539 182.181 188.248 166.989C183.215 167.047 172.526 180.569 159.166 185.654C145.806 190.74 137.631 199.135 135.214 202.698C135.1 204.951 135.901 209.748 137.793 213.456C143.081 223.82 151.007 228.135 166.779 220.981Z" fill="#98674D"/>
<path d="M42.3393 238.854L100.746 270.587C101.357 270.919 102.059 271.046 102.748 270.949L247.92 250.502C250.726 250.107 251.713 246.559 249.515 244.771L215.754 217.312C215.093 216.774 214.247 216.518 213.399 216.599L43.5808 232.772C40.3924 233.076 39.525 237.325 42.3393 238.854Z" fill="#BFBFBF"/>
<path d="M69.469 243.349L110.898 263.64C111.468 263.918 112.106 264.024 112.734 263.945L221.794 250.098C224.703 249.729 225.669 245.996 223.304 244.262L199.662 226.928C199.028 226.464 198.248 226.245 197.465 226.312L70.6187 237.202C67.3407 237.483 66.5142 241.902 69.469 243.349Z" fill="#A8A8A8"/>
<path d="M97.9011 170.782C97.9011 166.957 100.753 163.733 104.549 163.267L252.74 145.045C257.254 144.49 261.235 148.012 261.235 152.56V242.872C261.235 246.641 258.463 249.836 254.732 250.368L106.541 271.489C101.981 272.139 97.9011 268.6 97.9011 263.993V170.782Z" fill="url(#paint0_linear_687_83)"/>
<path d="M191.364 192.393H201.4V195.257H191.364V192.393Z" fill="#9A9A9A"/>
<path d="M191.364 192.393H201.4V195.257H191.364V192.393Z" stroke="#979797"/>
<path d="M197.931 187.268V197.668L194.795 200.682V190.433L197.931 187.268Z" fill="#9A9A9A"/>
<path d="M197.931 187.268V197.668L194.795 200.682V190.433L197.931 187.268Z" stroke="#979797"/>
<path d="M193.218 205.054L199.51 199.025V224.454L193.218 221.289V205.054Z" fill="#9A9A9A"/>
<path d="M193.218 205.054L199.51 199.025V224.454L193.218 221.289V205.054Z" stroke="#979797"/>
<path d="M163.112 195.708V187.267L199.491 222.237V230.677L163.112 195.708Z" fill="#9A9A9A"/>
<path d="M163.112 195.708V187.267L199.491 222.237V230.677L163.112 195.708Z" stroke="#979797"/>
<path d="M163.112 187.267L169.384 193.296L169.384 224.648L163.112 230.677L163.112 187.267Z" fill="#9A9A9A"/>
<path d="M163.112 187.267L169.384 193.296L169.384 224.648L163.112 230.677L163.112 187.267Z" stroke="#979797"/>
<path d="M163.112 230.677L178.478 216.207L174.088 211.987L163.209 221.871L163.112 230.677Z" fill="#9A9A9A"/>
<path d="M163.112 230.677L178.478 216.207L174.088 211.987L163.209 221.871L163.112 230.677Z" stroke="#979797"/>
<g filter="url(#filter0_d_687_83)">
<rect x="257" y="10" width="46" height="34" rx="11" fill="#FAFAFA"/>
</g>
<g filter="url(#filter1_d_687_83)">
<rect x="176" y="31" width="25" height="18.4783" rx="6" fill="#FAFAFA"/>
</g>
<g filter="url(#filter2_d_687_83)">
<rect x="209" y="2" width="32" height="23.6522" rx="8" fill="#FAFAFA"/>
</g>
<path d="M53.2388 223.002C39.5639 215.161 29.0515 181.603 35.252 166.996C40.2499 167.566 50.0342 182.132 62.9961 188.559C75.9581 194.986 85.0178 203.668 85.7421 207.984C86.5 212.5 84.6221 214.942 82.5122 218.446C76.6143 228.241 68.4698 231.737 53.2388 223.002Z" fill="#98674D"/>
<defs>
<filter id="filter0_d_687_83" x="253" y="8" width="54" height="42" filterUnits="userSpaceOnUse" color-interpolation-filters="sRGB">
<feFlood flood-opacity="0" result="BackgroundImageFix"/>
<feColorMatrix in="SourceAlpha" type="matrix" values="0 0 0 0 0 0 0 0 0 0 0 0 0 0 0 0 0 0 127 0" result="hardAlpha"/>
<feOffset dy="2"/>
<feGaussianBlur stdDeviation="2"/>
<feComposite in2="hardAlpha" operator="out"/>
<feColorMatrix type="matrix" values="0 0 0 0 0 0 0 0 0 0 0 0 0 0 0 0 0 0 0.12 0"/>
<feBlend mode="normal" in2="BackgroundImageFix" result="effect1_dropShadow_687_83"/>
<feBlend mode="normal" in="SourceGraphic" in2="effect1_dropShadow_687_83" result="shape"/>
</filter>
<filter id="filter1_d_687_83" x="172" y="29" width="33" height="26.4783" filterUnits="userSpaceOnUse" color-interpolation-filters="sRGB">
<feFlood flood-opacity="0" result="BackgroundImageFix"/>
<feColorMatrix in="SourceAlpha" type="matrix" values="0 0 0 0 0 0 0 0 0 0 0 0 0 0 0 0 0 0 127 0" result="hardAlpha"/>
<feOffset dy="2"/>
<feGaussianBlur stdDeviation="2"/>
<feComposite in2="hardAlpha" operator="out"/>
<feColorMatrix type="matrix" values="0 0 0 0 0 0 0 0 0 0 0 0 0 0 0 0 0 0 0.12 0"/>
<feBlend mode="normal" in2="BackgroundImageFix" result="effect1_dropShadow_687_83"/>
<feBlend mode="normal" in="SourceGraphic" in2="effect1_dropShadow_687_83" result="shape"/>
</filter>
<filter id="filter2_d_687_83" x="205" y="0" width="40" height="31.6522" filterUnits="userSpaceOnUse" color-interpolation-filters="sRGB">
<feFlood flood-opacity="0" result="BackgroundImageFix"/>
<feColorMatrix in="SourceAlpha" type="matrix" values="0 0 0 0 0 0 0 0 0 0 0 0 0 0 0 0 0 0 127 0" result="hardAlpha"/>
<feOffset dy="2"/>
<feGaussianBlur stdDeviation="2"/>
<feComposite in2="hardAlpha" operator="out"/>
<feColorMatrix type="matrix" values="0 0 0 0 0 0 0 0 0 0 0 0 0 0 0 0 0 0 0.12 0"/>
<feBlend mode="normal" in2="BackgroundImageFix" result="effect1_dropShadow_687_83"/>
<feBlend mode="normal" in="SourceGraphic" in2="effect1_dropShadow_687_83" result="shape"/>
</filter>
<linearGradient id="paint0_linear_687_83" x1="131.974" y1="148.868" x2="235.275" y2="268.934" gradientUnits="userSpaceOnUse">
<stop stop-color="#D9D9D9"/>
<stop offset="1" stop-color="#ACACAC"/>
</linearGradient>
</defs>
</svg>
